<?xml version="1.0" standalone="no"?>
<!DOCTYPE svg PUBLIC "-//W3C//DTD SVG 20010904//EN"
 "http://www.w3.org/TR/2001/REC-SVG-20010904/DTD/svg10.dtd">
<svg version="1.0" xmlns="http://www.w3.org/2000/svg"
 width="2000.000000pt" height="1500.000000pt" viewBox="0 0 2000.000000 1500.000000"
 preserveAspectRatio="xMidYMid meet">

<g transform="translate(0.000000,1500.000000) scale(0.100000,-0.100000)"
fill="#000000" stroke="none">
<path d="M0 7500 l0 -7500 10000 0 10000 0 0 7500 0 7500 -10000 0 -10000 0 0
-7500z m5045 2941 c278 -63 529 -192 742 -383 424 -379 667 -971 639 -1558
-14 -300 -75 -542 -201 -807 -245 -513 -645 -846 -1170 -975 -90 -22 -93 -22
-1252 -25 l-1163 -4 0 1884 c0 1036 3 1887 7 1891 4 4 523 5 1153 3 l1145 -3
100 -23z m3755 -396 c725 -122 1259 -604 1421 -1281 47 -199 49 -236 49 -1181
l0 -893 -80 0 -80 0 0 844 c0 862 -4 968 -40 1143 -57 277 -207 556 -405 757
-465 472 -1263 610 -1883 325 -330 -152 -606 -423 -761 -749 -60 -127 -92
-221 -122 -360 -20 -91 -23 -134 -23 -320 0 -242 13 -328 80 -521 80 -232 198
-414 384 -592 429 -412 1067 -568 1584 -388 33 12 63 21 68 21 5 0 8 -37 6
-82 l-3 -82 -59 -18 c-277 -84 -603 -89 -914 -13 -203 49 -378 126 -553 243
-407 272 -656 649 -740 1120 -26 141 -31 440 -10 567 51 318 184 622 371 850
57 69 186 199 245 248 68 55 203 141 298 189 218 109 367 153 652 192 69 10
425 -3 515 -19z m3525 5 c308 -29 573 -100 825 -223 115 -56 277 -161 354
-229 l49 -44 -61 -47 c-33 -26 -63 -47 -66 -47 -3 0 -48 32 -98 70 -181 138
-469 260 -739 314 -202 40 -310 49 -562 43 -252 -5 -341 -17 -517 -68 -299
-87 -547 -273 -655 -492 -64 -130 -79 -197 -79 -347 -1 -156 20 -253 79 -375
82 -170 206 -291 390 -380 215 -105 329 -124 785 -135 399 -10 485 -21 614
-83 141 -67 209 -168 210 -312 1 -62 -4 -91 -20 -126 -68 -147 -249 -248 -513
-285 -213 -30 -552 -16 -758 31 -161 37 -342 110 -435 177 l-47 34 52 40 c29
22 58 44 65 48 8 5 45 -9 93 -34 97 -50 189 -82 312 -109 279 -60 714 -51 901
20 76 28 145 77 167 119 40 73 15 182 -53 233 -78 59 -199 77 -512 77 -384 0
-595 25 -798 96 -123 43 -157 60 -267 131 -277 180 -430 472 -431 819 0 183
26 299 101 444 159 308 474 516 914 605 213 43 472 56 700 35z m1713 -1717 l2
-1643 -85 0 -85 0 0 1638 c0 901 3 1642 7 1646 4 4 41 5 83 4 l75 -3 3 -1642z
m330 0 l2 -1643 -85 0 -85 0 0 1638 c0 901 3 1642 7 1646 4 4 41 5 83 4 l75
-3 3 -1642z m330 0 l2 -1643 -85 0 -85 0 0 1645 0 1646 83 -3 82 -3 3 -1642z
m322 1072 l0 -575 580 0 580 0 0 575 0 575 80 0 80 0 0 -1645 0 -1645 -80 0
-80 0 0 655 0 655 -580 0 -580 0 0 -655 0 -655 -80 0 -80 0 0 1645 0 1645 80
0 80 0 0 -575z m1650 -1070 l0 -1645 -80 0 -80 0 0 1645 0 1645 80 0 80 0 0
-1645z m330 0 l0 -1645 -85 0 -85 0 0 1638 c0 901 3 1642 7 1645 3 4 42 7 85
7 l78 0 0 -1645z m328 -2 l2 -1643 -85 0 -85 0 0 1638 c0 901 3 1642 7 1646 4
4 41 5 83 4 l75 -3 3 -1642z m-8528 1378 c496 -102 869 -406 1044 -849 21 -51
49 -141 64 -200 l26 -107 3 -932 4 -933 -80 0 -80 0 -4 908 c-3 882 -4 909
-24 998 -62 265 -177 471 -354 639 -336 316 -902 429 -1364 272 -367 -126
-658 -421 -778 -788 -56 -172 -73 -424 -42 -619 31 -185 114 -387 219 -527
105 -140 284 -282 459 -363 183 -86 326 -119 538 -127 209 -7 356 17 555 94
13 5 14 -8 12 -78 l-3 -84 -70 -23 c-165 -56 -237 -66 -450 -66 -167 0 -216 4
-301 22 -138 30 -241 65 -359 122 -151 74 -249 143 -371 265 -205 205 -325
425 -386 708 -31 147 -31 419 0 564 129 595 573 1018 1177 1119 117 20 440 11
565 -15z m3531 9 c367 -37 720 -169 939 -350 l25 -20 -40 -36 c-81 -73 -74
-73 -168 -10 -102 68 -219 123 -349 165 -444 142 -1046 124 -1337 -40 -190
-108 -287 -245 -298 -424 -14 -231 109 -418 338 -511 133 -54 216 -65 584 -74
348 -9 443 -17 575 -50 299 -76 502 -258 566 -510 23 -90 23 -257 0 -335 -92
-308 -393 -511 -850 -571 -171 -22 -514 -15 -681 15 -303 54 -545 150 -737
293 -38 27 -68 53 -68 57 0 5 27 29 60 55 l61 48 75 -52 c317 -219 847 -316
1333 -244 262 39 476 150 582 304 51 73 69 129 76 225 17 250 -114 438 -367
529 -135 49 -212 58 -585 66 -373 9 -451 17 -607 66 -141 44 -232 98 -330 194
-94 92 -141 173 -173 295 -19 74 -22 242 -5 316 44 192 215 379 442 483 123
57 298 100 488 119 81 8 355 6 451 -3z m-3631 -325 c379 -62 679 -288 823
-619 48 -112 76 -228 87 -369 6 -62 10 -473 10 -914 l0 -803 -85 0 -85 0 0
859 c0 904 -2 947 -47 1086 -126 393 -531 640 -998 612 -253 -16 -462 -112
-631 -289 -171 -181 -245 -372 -245 -633 0 -347 129 -607 381 -767 190 -122
395 -175 635 -165 145 6 238 27 371 81 l84 34 0 -84 0 -85 -47 -20 c-153 -65
-385 -98 -574 -79 -554 53 -928 387 -1004 894 -44 298 10 562 164 796 52 80
201 231 284 288 133 92 289 156 442 181 86 15 333 12 435 -4z m3638 -6 c119
-13 303 -52 397 -86 80 -29 226 -102 273 -137 l33 -24 -65 -51 -65 -51 -47 30
c-105 66 -262 117 -458 147 -134 20 -478 23 -605 4 -291 -43 -425 -167 -352
-326 51 -112 165 -145 511 -145 519 -1 747 -38 995 -160 253 -124 422 -310
504 -555 40 -120 52 -205 52 -355 0 -152 -29 -278 -91 -402 -186 -373 -583
-601 -1144 -658 -149 -16 -493 -8 -629 14 -301 49 -594 148 -800 272 -75 45
-235 163 -260 191 -18 21 -17 22 46 67 l65 46 92 -69 c350 -263 878 -399 1401
-362 270 19 452 63 634 151 254 125 440 331 502 560 25 91 24 317 -1 415 -78
301 -299 514 -632 610 -164 47 -248 56 -624 65 -351 8 -416 15 -530 51 -152
49 -247 151 -270 288 -20 120 7 201 97 288 92 90 257 156 458 182 100 12 399
13 513 0z m-3684 -321 c171 -26 304 -94 427 -217 96 -97 143 -179 181 -316 22
-79 22 -87 26 -962 l3 -883 -86 0 -85 0 0 856 c0 942 1 933 -62 1059 -42 83
-88 137 -163 190 -214 153 -549 165 -763 28 -122 -77 -219 -205 -258 -338 -22
-77 -22 -244 0 -339 51 -214 206 -368 426 -421 95 -23 252 -30 351 -16 91 13
244 60 297 92 18 10 37 19 43 19 5 0 9 -35 9 -79 l0 -78 -72 -33 c-123 -55
-207 -72 -373 -77 -123 -4 -167 -1 -245 15 -316 65 -511 236 -592 518 -19 68
-23 102 -22 239 0 146 2 167 27 240 39 117 91 199 187 295 97 97 165 140 282
181 137 47 282 55 462 27z m-294 -3972 c0 -146 4 -276 9 -290 6 -13 19 -26 31
-28 11 -2 21 -7 20 -13 0 -6 -39 -10 -95 -10 -56 0 -95 4 -96 10 0 6 8 12 18
13 40 8 43 27 43 263 0 125 -3 234 -6 243 -3 9 -17 16 -31 16 -43 0 -24 32 27
45 88 24 80 48 80 -249z m4400 64 c0 -186 1 -199 18 -193 19 6 132 113 132
124 0 4 -10 9 -22 11 -12 2 -23 9 -26 16 -3 10 16 12 85 10 89 -3 114 -17 52
-29 -29 -6 -139 -102 -139 -121 0 -5 36 -49 81 -99 56 -62 90 -92 110 -96 16
-3 29 -12 29 -19 0 -10 -16 -14 -64 -14 l-63 0 -77 89 c-67 77 -93 101 -112
101 -2 0 -4 -31 -4 -68 0 -70 10 -92 42 -92 10 0 18 -7 18 -15 0 -12 -18 -15
-100 -15 -80 0 -100 3 -100 14 0 9 12 16 28 18 l27 3 0 255 0 254 -24 6 c-35
8 -37 28 -4 36 15 3 39 10 53 14 63 21 60 29 60 -190z m-6319 170 c22 -12 26
-59 7 -78 -17 -17 -64 -15 -82 4 -22 22 -20 50 6 68 26 19 42 20 69 6z m2317
-2 c7 -7 12 -24 12 -38 0 -14 -5 -31 -12 -38 -20 -20 -65 -14 -82 10 -21 29
-20 33 6 58 24 22 58 26 76 8z m940 0 c7 -7 12 -24 12 -38 0 -14 -5 -31 -12
-38 -20 -20 -65 -14 -82 10 -21 29 -20 33 6 58 24 22 58 26 76 8z m1818 -13
c15 -23 15 -27 0 -50 -18 -27 -63 -34 -84 -13 -19 19 -14 55 10 72 32 23 55
20 74 -9z m-1434 -135 l-4 -53 56 7 c52 7 56 6 56 -13 0 -18 -6 -21 -50 -21
l-50 0 0 -141 c0 -174 4 -184 71 -175 38 5 49 4 49 -7 0 -19 -44 -37 -91 -37
-91 0 -109 37 -109 225 l0 135 -30 0 c-40 0 -39 23 2 41 21 9 42 30 56 57 31
57 48 50 44 -18z m-3632 -209 c0 -173 4 -191 42 -191 10 0 18 -7 18 -15 0 -12
-18 -15 -100 -15 -80 0 -100 3 -100 14 0 9 12 16 28 18 l27 3 3 143 3 144 -31
11 c-17 6 -29 16 -27 21 4 11 118 45 130 39 4 -2 7 -80 7 -172z m1280 144 l0
-24 46 26 c84 47 180 17 226 -70 30 -58 30 -147 0 -204 -43 -82 -153 -124
-235 -90 l-37 16 0 -68 c0 -69 10 -91 42 -91 10 0 18 -7 18 -15 0 -12 -18 -15
-101 -15 -75 0 -100 3 -97 12 3 7 15 15 29 18 l24 6 3 231 2 231 -30 7 c-17 4
-29 12 -27 18 3 11 117 46 130 40 4 -2 7 -15 7 -28z m-1707 16 c36 -14 57 -39
57 -70 0 -33 -16 -51 -46 -51 -25 0 -40 15 -24 25 17 11 11 54 -9 65 -51 27
-131 0 -131 -44 0 -32 24 -51 102 -79 94 -34 116 -50 124 -94 19 -101 -112
-174 -235 -129 -47 17 -76 56 -67 91 8 30 43 47 68 34 15 -8 16 -14 6 -34 -9
-21 -8 -28 7 -45 26 -29 80 -36 121 -16 29 13 34 21 34 51 0 39 -7 43 -132 89
-26 10 -57 29 -68 43 -25 32 -26 90 -2 120 34 44 134 67 195 44z m819 -23 l3
-31 33 28 c57 48 160 44 197 -7 13 -20 14 -20 50 8 72 54 189 37 215 -32 6
-14 10 -78 10 -143 0 -121 7 -146 43 -153 10 -1 18 -7 18 -13 -1 -6 -40 -10
-96 -10 -55 0 -96 4 -97 10 -2 6 7 11 20 13 34 5 44 44 40 165 -3 100 -5 110
-27 128 -31 26 -91 25 -125 -2 l-27 -21 3 -131 3 -132 28 -3 c16 -2 27 -9 27
-18 0 -12 -17 -14 -97 -12 -63 2 -98 7 -100 15 -3 7 8 13 24 15 l28 3 3 132
c2 122 1 134 -18 153 -30 30 -90 27 -129 -6 l-31 -26 1 -101 c1 -123 8 -150
37 -157 13 -3 23 -9 23 -15 -1 -6 -40 -10 -96 -10 -56 0 -95 4 -96 10 0 6 8
12 18 13 36 7 43 32 43 156 0 67 -4 126 -8 131 -4 6 -20 16 -36 23 -34 15 -29
23 27 39 73 20 85 17 89 -19z m1918 -136 c0 -174 4 -192 42 -192 10 0 18 -7
18 -15 0 -13 -15 -15 -95 -13 -90 3 -125 16 -73 28 28 7 35 35 37 145 1 124
-6 153 -41 160 -40 9 -30 27 23 41 95 26 89 37 89 -154z m558 141 c15 -11 28
-32 30 -47 5 -37 -22 -76 -53 -76 -28 0 -42 17 -26 33 32 32 -6 87 -59 87 -62
0 -100 -61 -100 -162 0 -78 23 -126 72 -151 45 -22 89 -14 128 26 21 21 33 28
40 21 28 -28 -84 -104 -151 -104 -53 1 -114 34 -144 78 -71 108 -24 261 96
312 39 16 135 7 167 -17z m382 -141 c0 -174 4 -192 42 -192 10 0 18 -7 18 -15
0 -13 -15 -15 -95 -13 -90 3 -125 16 -73 28 29 7 36 34 37 146 1 128 -5 151
-41 159 -40 9 -30 27 23 41 95 26 89 37 89 -154z m1810 5 c0 -169 5 -192 43
-199 10 -1 18 -7 18 -13 -1 -6 -40 -10 -96 -10 -56 0 -95 4 -96 10 0 6 8 12
18 13 36 7 43 32 43 156 0 67 -4 126 -8 131 -4 6 -20 16 -36 23 -34 15 -29 23
27 39 93 25 87 35 87 -150z m505 148 c45 -18 62 -58 40 -91 -9 -14 -25 -24
-40 -24 -26 0 -41 15 -25 25 17 11 11 54 -9 65 -56 30 -140 -5 -125 -53 11
-37 22 -44 105 -73 91 -32 119 -58 119 -111 0 -90 -108 -144 -223 -112 -50 13
-77 42 -77 78 0 34 31 62 61 54 22 -6 22 -4 9 -37 -28 -75 128 -105 162 -32
18 42 -9 71 -93 97 -91 29 -119 52 -126 105 -4 33 -1 45 22 72 42 50 131 66
200 37z m1481 -1 c35 -17 67 -60 78 -106 5 -20 1 -33 -14 -48 -18 -18 -33 -20
-134 -20 l-115 0 6 -37 c12 -76 45 -114 109 -127 41 -9 83 8 116 47 24 28 27
30 34 14 10 -26 -50 -85 -101 -98 -130 -35 -245 54 -245 192 0 143 143 241
266 183z m-2967 -21 c20 -18 44 -64 71 -133 23 -58 45 -108 49 -112 6 -7 91
206 91 230 0 7 -11 12 -25 12 -16 0 -25 6 -25 15 0 12 16 15 85 15 69 0 85 -3
85 -15 0 -9 -9 -15 -23 -15 -13 0 -31 -6 -40 -12 -9 -7 -52 -100 -96 -206 -86
-211 -115 -263 -164 -292 -66 -41 -147 -11 -147 54 0 40 15 56 53 56 24 0 27
-3 22 -20 -19 -60 40 -82 87 -32 33 35 48 65 48 94 -1 13 -29 93 -63 178 -56
140 -65 156 -94 170 -47 22 -42 40 12 40 35 0 51 -6 74 -27z m3358 9 c13 -10
44 -68 72 -136 28 -65 52 -120 54 -123 6 -5 87 213 87 232 0 9 -10 15 -25 15
-16 0 -25 6 -25 15 0 12 16 15 85 15 69 0 85 -3 85 -15 0 -9 -9 -15 -23 -15
-13 0 -30 -6 -39 -12 -9 -7 -46 -87 -83 -177 -86 -213 -116 -271 -160 -309
-40 -36 -79 -41 -124 -17 -30 15 -41 33 -41 69 0 30 18 46 53 46 26 0 28 -3
23 -24 -9 -37 3 -56 35 -56 34 0 60 24 89 79 l20 40 -60 155 c-64 163 -89 206
-121 206 -10 0 -19 7 -19 15 0 22 88 20 117 -3z"/>
<path d="M2810 8575 l0 -1726 1053 4 c1024 3 1054 4 1142 24 187 43 346 112
510 220 139 93 327 282 424 427 322 485 405 1094 225 1646 -46 140 -168 383
-251 500 -83 116 -250 285 -359 362 -149 106 -318 186 -496 235 l-103 28
-1072 3 -1073 3 0 -1726z m2095 1555 c222 -32 423 -122 611 -274 230 -185 420
-480 508 -791 93 -328 86 -715 -20 -1040 -37 -113 -131 -304 -204 -412 -78
-117 -217 -265 -329 -349 -111 -84 -298 -177 -426 -212 l-100 -27 -987 -3
-988 -3 0 1561 0 1560 933 0 c569 0 959 -4 1002 -10z"/>
<path d="M3140 8575 l0 -1395 834 0 c544 0 862 4 912 11 361 50 679 300 871
684 121 240 172 486 160 770 -25 613 -384 1133 -893 1292 l-89 28 -897 3 -898
3 0 -1396z m1786 1216 c397 -82 721 -471 806 -966 28 -166 21 -419 -15 -575
-76 -321 -247 -588 -480 -748 -97 -67 -183 -106 -295 -135 -86 -22 -95 -22
-862 -22 l-775 0 -3 1233 -2 1232 767 0 c711 0 775 -2 859 -19z"/>
<path d="M3470 8581 l0 -1071 674 0 c741 0 758 1 885 60 267 125 476 429 535
779 20 119 21 328 1 448 -57 352 -255 649 -518 778 -147 71 -116 69 -884 73
l-693 3 0 -1070z m1459 872 c205 -84 383 -313 449 -578 29 -114 33 -159 33
-308 -1 -203 -37 -359 -121 -514 -99 -185 -233 -308 -390 -359 -50 -17 -109
-19 -662 -22 l-608 -3 0 906 0 906 623 -3 c616 -3 623 -3 676 -25z"/>
<path d="M3800 8580 l0 -740 503 0 c553 0 554 0 649 61 105 67 213 237 259
403 41 151 41 402 0 551 -55 200 -170 359 -310 428 l-66 32 -517 3 -518 3 0
-741z"/>
<path d="M15020 8580 l0 -80 580 0 580 0 0 80 0 80 -580 0 -580 0 0 -80z"/>
<path d="M15020 8250 l0 -80 580 0 580 0 0 80 0 80 -580 0 -580 0 0 -80z"/>
<path d="M7763 5081 l-33 -21 0 -119 0 -119 31 -26 c103 -87 214 53 169 215
-21 76 -103 110 -167 70z"/>
<path d="M13367 5099 c-23 -13 -47 -62 -47 -94 0 -24 2 -25 59 -25 87 0 111
12 111 53 0 60 -69 97 -123 66z"/>
</g>
</svg>
